<?xml version="1.0" standalone="no"?>
<!DOCTYPE svg PUBLIC "-//W3C//DTD SVG 20010904//EN"
 "http://www.w3.org/TR/2001/REC-SVG-20010904/DTD/svg10.dtd">
<svg version="1.0" xmlns="http://www.w3.org/2000/svg"
 width="1200.000000pt" height="1200.000000pt" viewBox="0 0 1200.000000 1200.000000"
 preserveAspectRatio="xMidYMid meet">

<g transform="translate(0.000000,1200.000000) scale(0.100000,-0.100000)"
fill="#000000" stroke="none">
<path d="M5670 11989 c-1366 -78 -2647 -609 -3664 -1518 -1050 -940 -1742
-2224 -1941 -3603 -45 -313 -59 -517 -59 -868 0 -552 54 -983 189 -1505 354
-1376 1201 -2590 2385 -3419 1413 -990 3207 -1316 4895 -889 873 220 1664 627
2390 1229 167 138 580 551 719 719 824 991 1288 2122 1397 3400 17 193 17 737
0 930 -109 1278 -573 2409 -1397 3400 -139 168 -552 581 -719 719 -630 522
-1277 881 -2025 1124 -695 225 -1444 322 -2170 281z m595 -269 c611 -32 1152
-141 1707 -344 199 -72 355 -141 588 -257 1630 -815 2784 -2371 3084 -4159
132 -781 103 -1570 -85 -2328 -157 -639 -418 -1232 -784 -1787 -869 -1317
-2265 -2228 -3813 -2490 -655 -111 -1316 -107 -1975 10 -1354 241 -2593 980
-3459 2064 -1022 1279 -1445 2914 -1172 4531 379 2245 2072 4060 4293 4604
518 127 1099 183 1616 156z"/>
<path d="M5795 11139 c-620 -21 -1233 -159 -1815 -407 -878 -374 -1639 -993
-2196 -1785 -42 -59 -73 -111 -69 -115 11 -11 654 -6 905 7 124 6 359 21 523
32 334 22 353 20 417 -37 60 -55 83 -141 59 -228 -14 -50 -82 -118 -134 -133
-49 -14 -177 -28 -434 -48 -106 -7 -195 -15 -197 -17 -4 -5 1860 -5548 1866
-5548 10 0 1121 3341 1118 3363 -2 13 -181 510 -398 1105 l-395 1081 -50 5
c-27 3 -156 15 -285 26 -282 26 -321 38 -366 116 -55 94 -32 226 50 289 60 46
81 47 408 26 907 -60 1313 -60 2200 0 164 11 310 17 325 13 61 -14 110 -52
137 -106 47 -94 28 -199 -47 -265 -56 -49 -108 -58 -506 -88 -106 -7 -194 -15
-196 -17 -3 -5 1850 -5508 1855 -5508 3 0 106 339 229 753 124 413 278 925
343 1137 195 634 254 853 300 1115 30 175 33 547 4 725 -50 320 -166 640 -348
960 -36 63 -123 210 -193 325 -245 404 -329 611 -355 873 -19 188 8 337 95
517 88 183 229 328 400 410 113 55 193 76 320 84 l100 6 -90 79 c-276 242
-639 490 -985 674 -645 342 -1443 557 -2140 578 -91 2 -185 6 -210 7 -25 2
-135 0 -245 -4z"/>
<path d="M10523 8425 c32 -185 33 -718 2 -965 -48 -391 -168 -860 -321 -1255
-49 -126 -1612 -4639 -1608 -4644 8 -10 335 207 507 337 274 206 620 533 826
781 702 842 1101 1804 1197 2883 18 203 20 644 4 834 -53 638 -199 1196 -462
1769 -79 173 -152 303 -145 260z"/>
<path d="M1242 7958 c-207 -508 -327 -1014 -372 -1568 -22 -266 -12 -720 20
-1000 180 -1529 1048 -2904 2362 -3740 122 -77 489 -283 495 -277 4 4 -2438
6691 -2447 6700 -4 5 -30 -47 -58 -115z"/>
<path d="M5317 3299 c-422 -1228 -766 -2234 -764 -2236 9 -8 323 -85 462 -112
329 -65 618 -92 985 -92 378 0 661 27 1010 97 266 53 690 173 690 195 0 5 -8
26 -18 47 -11 20 -372 1003 -802 2185 -431 1181 -786 2147 -789 2147 -4 0
-351 -1004 -774 -2231z"/>
</g>
</svg>
